<?xml version="1.0" encoding="utf-8"?>
<!-- Generator: Adobe Illustrator 28.0.0, SVG Export Plug-In . SVG Version: 6.00 Build 0)  -->
<svg version="1.1" id="Layer_1" xmlns="http://www.w3.org/2000/svg" xmlns:xlink="http://www.w3.org/1999/xlink" x="0px" y="0px"
	 viewBox="0 0 50 50" style="enable-background:new 0 0 50 50;" xml:space="preserve">
<style type="text/css">
	.st0{fill:#EFB82A;}
	.st1{fill:#080808;}
</style>
<path class="st0" d="M40.16,33.29c-0.54-0.62-1.1-1.26-1.54-1.76c-0.97-0.27-1.5,0.15-2.09,0.6c0,1,0,2.01,0,3.02
	c-0.7,0.34-1.43,0.35-2.1,0.54c-0.35,0.1-0.67-0.02-0.83-0.4c-0.19-0.47-0.4-0.93-0.6-1.39c-0.15-0.34-0.32-0.66-0.49-1.02
	c-0.6-0.04-1.16-0.14-1.77,0.08c-0.26,0.65-0.5,1.31-0.8,1.95c-0.38,0.81-0.61,0.89-1.52,0.68c-0.26-0.06-0.53-0.11-0.79-0.17
	c-0.23-0.05-0.45-0.11-0.66-0.16c-0.61-1.02-0.07-2.08-0.13-3.08c-0.49-0.47-1.08-0.65-1.67-0.93c-0.71,0.68-1.42,1.36-2.13,2.04
	c-1.08,0.01-1.57-0.87-2.25-1.24c-0.16-0.53-0.09-0.88,0.12-1.22c0.14-0.23,0.26-0.48,0.38-0.72c0.64-1.29,0.64-1.29-0.5-2.36
	c-1.04-0.1-1.93,0.61-3.06,0.76c-0.64-0.66-1.2-1.42-1.34-2.38c0.55-0.9,1.53-1.24,2.08-2.05c0.08-0.71-0.09-1.33-0.81-1.86
	c-0.51,0-1.12,0.03-1.73-0.01c-0.9-0.05-1.1-0.27-1.16-1.17c-0.02-0.24-0.04-0.46-0.09-0.7c-0.19-0.8-0.01-1.16,0.75-1.39
	c0.51-0.15,1-0.4,1.55-0.46c0.19-0.02,0.37-0.14,0.59-0.23c0.04-0.15,0.09-0.31,0.14-0.47c0.28-0.97,0.16-1.24-0.69-1.71
	c-0.59-0.33-1.17-0.67-1.81-1.04c-0.05-0.99,0.29-1.83,0.78-2.56c1.11-0.39,2.09,0.24,3.12,0.09c0.34-0.37,0.61-0.79,0.78-1.22
	c-0.18-1.26-1.66-1.78-1.62-3.1c0.37-0.4,0.71-0.78,1.07-1.15c0.56-0.57,0.81-0.6,1.51-0.19c0.29,0.17,0.56,0.37,0.85,0.56
	c0.94,0.62,1.33,0.59,2.15-0.17c0.12-0.11,0.22-0.25,0.32-0.36c-0.24-1-0.75-1.93-0.53-3.05c0.77-0.36,1.49-0.98,2.48-0.9
	c0.78,0.69,1.04,1.77,1.91,2.41c0.12-0.01,0.26,0,0.38-0.04c1.29-0.34,1.35-0.38,1.5-1.75c0.06-0.54,0.15-1.06,0.4-1.58
	c0.85-0.16,1.7-0.09,2.58-0.08c0.73,0.91,0.36,2.17,0.95,3.17c0.49,0.04,0.94,0.32,1.51,0.27c0.79-0.62,1.06-1.69,1.87-2.39
	c0.95-0.06,1.7,0.48,2.51,0.9c0.2,1.06-0.32,1.98-0.55,2.91c0.12,0.35,0.36,0.56,0.59,0.74c0.57,0.44,0.94,0.46,1.58,0.08
	c0.38-0.22,0.74-0.47,1.13-0.68c0.32-0.18,0.65-0.38,1.12-0.24c0.54,0.56,1.27,1.04,1.54,1.92c-0.37,0.9-1.16,1.5-1.66,2.39
	c-0.07,0.6,0.36,1.05,0.69,1.54c1.06,0.19,2.04-0.42,3.14-0.11c0.58,0.66,0.74,1.54,0.87,2.49c-0.8,0.64-1.76,1.01-2.6,1.6
	c-0.08,0.61-0.15,1.21,0.22,1.69c0.66,0.45,1.37,0.51,2.05,0.7c0.8,0.22,0.95,0.49,0.81,1.32c-0.05,0.3-0.05,0.61-0.06,0.91
	c-0.01,0.27,0,0.55-0.27,0.79c-0.55,0.27-1.19,0.31-1.84,0.29c-1.2-0.04-1.5,0.27-1.64,1.3c-0.01,0.1-0.07,0.19-0.13,0.32
	c0.27,0.64,0.88,0.98,1.39,1.39c0.24,0.19,0.46,0.4,0.67,0.62c0.16,0.16,0.23,0.38,0.15,0.56c-0.36,0.83-0.64,1.72-1.55,2.09
	c-0.99-0.08-1.76-0.8-2.71-0.78c-0.43,0.24-0.7,0.59-1.03,0.95c-0.07,1.17,1,2.01,1.03,3.14C41.87,32.67,41.12,33.14,40.16,33.29z
	 M31.69,30.18c6.13,0.09,11.51-5.08,11.32-11.61c-0.19-6.13-5.03-10.91-11.1-11.05c-6.46-0.14-11.48,5.01-11.59,11.06
	C20.21,25.14,25.4,30.22,31.69,30.18z"/>
<path class="st0" d="M2.89,31.02c0.19-0.72,0.58-1.11,1.08-1.46c0.59,0.3,1.16,0.58,1.68,0.84c0.4-0.07,0.59-0.31,0.8-0.6
	c-0.02-0.27,0.01-0.59-0.08-0.87c-0.1-0.3-0.22-0.57-0.1-0.94c0.37-0.33,0.85-0.55,1.38-0.7c0.63,0.31,0.73,1.08,1.35,1.44
	c0.28,0.06,0.61,0.09,0.97-0.15c0.22-0.57,0-1.35,0.65-1.86c0.43,0,0.9,0,1.36,0c0.65,0.51,0.14,1.42,0.71,1.96
	c0.28,0.1,0.58,0.07,0.92,0.06c0.36-0.46,0.73-0.94,1.1-1.42c0.59,0.05,1.05,0.31,1.44,0.6c0.32,0.67-0.2,1.23-0.1,1.84
	c0.64,0.79,0.64,0.79,1.46,0.3c0.17-0.1,0.35-0.2,0.53-0.29c0.15-0.07,0.31-0.13,0.51-0.22c0.29,0.33,0.59,0.66,0.96,1.07
	c0.13,0.37-0.13,0.72-0.4,1.08c-0.53,0.7-0.53,0.7-0.07,1.52c0.62,0,1.26,0,1.89,0c0.43,0.43,0.44,0.99,0.63,1.42
	c-0.38,0.69-1.19,0.63-1.59,1.18c-0.09,0.3-0.08,0.59,0.04,0.9c0.46,0.43,1.11,0.42,1.71,0.73c0.12,0.5,0.04,1.03,0.02,1.62
	c-0.62,0.24-1.27,0.35-1.88,0.35c-0.44,0.31-0.36,0.69-0.32,1.07c0.34,0.42,0.76,0.77,1.2,1.14c0.03,0.7-0.43,1.14-0.92,1.63
	c-0.52-0.12-1.02-0.3-1.52-0.55c-0.46,0.1-0.75,0.38-0.84,0.87c0.16,0.55,0.56,1,0.64,1.61c-0.17,0.18-0.31,0.37-0.49,0.52
	c-0.24,0.18-0.51,0.32-0.77,0.49c-0.68-0.21-1-0.83-1.53-1.19c-0.97,0.29-1.16,0.49-0.98,1.37c0.14,0.71-0.33,1.2-0.97,1.23
	c-0.24,0.01-0.47,0-0.69,0c-0.51-0.44-0.53-1.13-0.96-1.58c-0.28-0.15-0.58-0.11-0.91-0.04c-0.49,0.4-0.42,1.12-0.84,1.56
	c-0.96,0.08-0.96,0.08-1.67-0.29c-0.14-0.51-0.02-1.06-0.07-1.57C8.04,45.28,7.7,45.13,7.33,45c-0.61,0.21-0.9,0.88-1.53,1.16
	c-0.63-0.07-1.07-0.45-1.44-1.02c0.31-0.48,0.38-1.07,0.75-1.53c-0.11-0.41-0.34-0.72-0.77-0.92c-0.51,0.18-1.05,0.37-1.61,0.57
	c-0.61-0.29-0.74-0.91-0.99-1.41c0.3-0.69,1.04-0.92,1.36-1.54C3.07,40,2.94,39.73,2.7,39.47c-0.52-0.14-1.12-0.05-1.73-0.35
	c-0.39-0.4-0.27-0.99-0.27-1.59c0.47-0.5,1.19-0.37,1.75-0.69c0.13-0.22,0.05-0.53,0.26-0.68c-0.31-0.76-1.11-0.84-1.56-1.3
	c-0.2-0.56,0.08-1.01,0.24-1.53c0.67-0.25,1.39,0.02,2.03-0.1c0.32-0.23,0.38-0.53,0.51-0.8C3.66,31.9,3.28,31.47,2.89,31.02z
	 M18.27,37.23c0.05-4.22-3.65-7.13-7.13-7.02c-3.8,0.13-6.85,2.85-6.89,6.94c-0.04,4.21,2.96,7,6.92,7.08
	C15.34,44.31,18.38,40.91,18.27,37.23z"/>
<path class="st1" d="M36.77,46.96c-0.15,0.23-0.26,0.4-0.38,0.59c-1.55,0-3.11,0-4.72,0c-0.15-0.17-0.32-0.38-0.5-0.59
	c-1.23,0-2.46,0.01-3.68,0c-1.04-0.01-1.41-0.27-1.64-1.27c-0.41-1.84-0.79-3.68-1.16-5.53c-0.05-0.26-0.06-0.54-0.05-0.81
	c0.06-1.09,0.63-1.65,1.73-1.72c0.24-0.01,0.48,0,0.71,0c4.7-0.01,9.39-0.02,14.09-0.03c1.49-0.01,2.26,0.8,2.06,2.27
	c-0.27,1.97-0.69,3.92-1.17,5.85c-0.26,1.03-0.58,1.24-1.66,1.24C39.21,46.97,38.02,46.96,36.77,46.96z M36.38,46.33
	c0.21,0,0.42,0,0.62,0c1.02,0,2.04,0.01,3.07-0.01c1.05-0.01,1.09-0.09,1.4-1.08c0.11-0.36,0.13-0.73,0.21-1.09
	c0.32-1.45,0.61-2.91,0.88-4.37c0.17-0.93-0.26-1.42-1.21-1.42c-4.91-0.01-9.81,0-14.72-0.01c-0.51,0-0.95,0.07-1.23,0.72
	c0.11,2.31,0.81,4.64,1.26,7.01c1.74,0.46,3.42,0.09,5.03,0.27c0.29,0.11,0.27,0.5,0.57,0.55c1.21,0,2.4,0,3.51,0
	C36.1,46.81,36.06,46.47,36.38,46.33z"/>
<path class="st1" d="M40.43,42.08c-0.03,0.22-0.04,0.35-0.06,0.52c-4.28,0-8.54,0-12.79,0c-0.13-0.17-0.12-0.32-0.02-0.52
	C31.79,42.08,36.06,42.08,40.43,42.08z"/>
<path class="st1" d="M40.48,43.98c-0.34,0.19-0.67,0.15-1.02,0.03c-0.01-0.34,0.16-0.44,0.43-0.45
	C40.18,43.55,40.43,43.56,40.48,43.98z"/>
<path class="st1" d="M33.55,44.02c-0.3,0.12-0.61,0.12-0.91,0c-0.05-0.15-0.06-0.28,0.07-0.41c0.21-0.11,0.48-0.03,0.73-0.04
	C33.6,43.69,33.64,43.83,33.55,44.02z"/>
<path class="st1" d="M35.22,44.02c-0.31,0.15-0.62,0.06-0.9,0.04c-0.09-0.19-0.07-0.31,0.04-0.44c0.23-0.12,0.49-0.04,0.73-0.04
	C35.27,43.69,35.29,43.83,35.22,44.02z"/>
<path class="st1" d="M38.67,43.52c0.04,0.23,0.05,0.33,0.07,0.45c-0.3,0.22-0.62,0.1-0.88,0.1c-0.21-0.13-0.11-0.27-0.12-0.39
	C38.01,43.46,38.31,43.63,38.67,43.52z"/>
<path class="st1" d="M27.6,43.6c0.31-0.05,0.65-0.15,0.9,0.31c-0.35,0.27-0.66,0.19-0.95,0.13C27.44,43.88,27.47,43.76,27.6,43.6z"
	/>
<path class="st1" d="M35.99,44.11c0.35-0.68,0.51-0.69,1.08-0.17C36.76,44.19,36.44,44.07,35.99,44.11z"/>
<path class="st1" d="M34.04,40.77c0.58-0.21,0.92-0.25,1.4,0.05C34.88,41.12,34.55,41.09,34.04,40.77z"/>
<path class="st1" d="M35.93,40.93c0.61-0.42,0.61-0.42,1.16-0.05C36.74,41.11,36.41,41.05,35.93,40.93z"/>
<path class="st1" d="M38.75,40.95c-0.37,0.1-0.7,0.16-1.06-0.05C38.18,40.46,38.38,40.47,38.75,40.95z"/>
<path class="st1" d="M27.51,40.91c0.24-0.49,0.58-0.33,1.01-0.16C28.2,41.18,27.85,40.99,27.51,40.91z"/>
<path class="st1" d="M30.19,40.97c-0.43,0.08-0.71,0.11-0.98,0.02c-0.11-0.16-0.08-0.35,0.04-0.35
	C29.56,40.62,29.98,40.38,30.19,40.97z"/>
<path class="st1" d="M32.5,40.93c0.4-0.46,0.74-0.39,1.21-0.15C33.31,41.17,32.96,41.04,32.5,40.93z"/>
<path class="st1" d="M30.2,44.07c-0.46,0.01-0.77,0.11-1.08-0.09C29.49,43.46,29.78,43.46,30.2,44.07z"/>
<path class="st1" d="M40.63,40.77c-0.51,0.33-0.8,0.3-1.16,0.15C39.73,40.44,40.06,40.59,40.63,40.77z"/>
<path class="st1" d="M31.79,44.09c-0.23,0-0.39,0.01-0.55,0c-0.09-0.01-0.19-0.05-0.27-0.07c-0.08-0.27,0.03-0.39,0.28-0.39
	C31.5,43.63,31.82,43.53,31.79,44.09z"/>
<path class="st1" d="M31.87,40.91c-0.38,0.15-0.65,0.18-0.93,0.02C31.22,40.49,31.31,40.48,31.87,40.91z"/>
</svg>
