<?xml version="1.0" encoding="utf-8"?>
<!-- Generator: Adobe Illustrator 28.0.0, SVG Export Plug-In . SVG Version: 6.00 Build 0)  -->
<svg version="1.1" id="Layer_1" xmlns="http://www.w3.org/2000/svg" xmlns:xlink="http://www.w3.org/1999/xlink" x="0px" y="0px"
	 viewBox="0 0 110 22" style="enable-background:new 0 0 110 22;" xml:space="preserve">
<style type="text/css">
	.st0{fill:#4B54A0;}
	.st1{fill:#FFFFFF;}
	.st2{fill:#EFB82A;}
</style>
<path class="st0" d="M104.39,4.76c0,0.93,0,1.82,0,2.74c-0.3-0.13-0.58-0.27-0.86-0.38C102.29,6.65,101,6.5,99.7,6.67
	c-1.91,0.25-3.12,1.7-3.45,3.29c-0.24,1.13-0.21,2.24,0.18,3.33c0.49,1.35,1.45,2.19,2.89,2.43c0.87,0.15,1.73,0.13,2.57-0.19
	c0.04-0.02,0.07-0.04,0.13-0.07c0-0.9,0-1.81,0-2.77c-0.9,0-1.79,0-2.71,0c0-0.81,0-1.58,0-2.36c1.89,0,3.76,0,5.63,0
	c0.08,0.27,0.1,6.42,0.02,6.81c-0.84,0.48-1.75,0.79-2.71,0.96c-0.79,0.14-1.59,0.21-2.39,0.19c-1.2-0.03-2.35-0.24-3.43-0.78
	c-1.7-0.86-2.73-2.24-3.19-4.07c-0.22-0.89-0.19-1.79-0.17-2.69c0.01-0.93,0.25-1.81,0.64-2.64c0.78-1.63,2.04-2.77,3.72-3.43
	c0.86-0.34,1.75-0.5,2.67-0.52c0.76-0.01,1.52-0.02,2.27,0.09C103.05,4.35,103.73,4.49,104.39,4.76z"/>
<path class="st0" d="M88.73,17.45c-0.3-0.7-0.47-1.45-0.74-2.17c-0.04-0.11-0.07-0.22-0.12-0.35c-1.63,0-3.28,0-4.95,0
	c-0.2,0.64-0.4,1.3-0.63,1.96c-0.11,0.32-0.16,0.66-0.34,0.95c-0.01-0.04-0.01-0.08-0.03-0.23c-0.04,0.19-0.11,0.27-0.22,0.32
	c-0.81,0-1.62,0-2.44,0c-0.14,0-0.28-0.02-0.41-0.08c0.06-0.37,0.22-0.7,0.35-1.05c0.84-2.32,1.67-4.65,2.54-6.97
	c0.6-1.62,1.21-3.25,1.79-4.87c0.07-0.19,0.13-0.38,0.21-0.59c1.12,0,2.26,0,3.43,0c0.23,0.42,0.35,0.91,0.52,1.37
	c0.81,2.23,1.6,4.47,2.4,6.7c0.63,1.77,1.27,3.53,1.91,5.29c0.01,0.04,0.02,0.08,0.02,0.12c-0.14-0.04-0.22,0.09-0.36,0.09
	c-0.87-0.01-1.74-0.01-2.56-0.01c-0.17-0.09-0.18-0.2-0.19-0.32C88.9,17.53,88.87,17.42,88.73,17.45z M85.31,6.72
	c0.02,0.4-0.06,0.71-0.16,1.03c-0.37,1.11-0.73,2.23-1.09,3.35c-0.16,0.49-0.32,0.99-0.48,1.49c0.63,0.07,3.23,0.05,3.54-0.02
	c-0.01-0.07-0.01-0.14-0.03-0.21c-0.26-0.81-0.54-1.61-0.79-2.42c-0.26-0.81-0.56-1.6-0.77-2.43C85.46,7.27,85.56,6.99,85.31,6.72z"
	/>
<path class="st0" d="M72.19,15.13c0.05-0.66,0.3-1.31,0.49-1.96c0.72-2.38,1.46-4.76,2.19-7.13c0.18-0.58,0.36-1.16,0.55-1.77
	c1,0,2,0,3.06,0c-1.58,4.56-3.16,9.1-4.74,13.65c-1.1,0-2.18,0-3.32,0c-1.55-4.53-3.11-9.08-4.68-13.66c1.07,0,2.1,0,3.16,0
	C70,7.9,71.19,11.49,72.19,15.13z"/>
<path class="st1" d="M49.81,12.98c0.03,0.95-0.13,1.82-0.53,2.63c-0.68,1.36-1.78,2.19-3.27,2.51c-1.2,0.26-2.38,0.23-3.54-0.18
	c-1.41-0.49-2.37-1.45-2.82-2.88c-0.39-1.23-0.38-2.47-0.01-3.71c0.43-1.46,1.4-2.44,2.81-2.95c1.39-0.5,2.83-0.53,4.24-0.07
	c1.54,0.51,2.51,1.58,2.95,3.13C49.77,11.97,49.84,12.5,49.81,12.98z M46.9,13.11c-0.01-0.5-0.01-1-0.18-1.48
	c-0.25-0.7-0.71-1.16-1.43-1.34c-0.14-0.03-0.28-0.03-0.43-0.04c-1.07-0.1-2.01,0.38-2.38,1.51c-0.3,0.91-0.28,1.83-0.04,2.74
	c0.21,0.78,0.71,1.31,1.54,1.5c0.27,0.06,0.54,0.04,0.81,0.05c0.88,0.02,1.59-0.53,1.87-1.3C46.85,14.22,46.9,13.67,46.9,13.11z"/>
<path class="st2" d="M21.63,14.59c-0.23-0.26-0.47-0.53-0.65-0.74c-0.41-0.11-0.63,0.06-0.88,0.25c0,0.42,0,0.85,0,1.27
	c-0.3,0.14-0.6,0.15-0.88,0.23c-0.15,0.04-0.28-0.01-0.35-0.17c-0.08-0.2-0.17-0.39-0.25-0.59c-0.06-0.14-0.13-0.28-0.2-0.43
	c-0.25-0.02-0.49-0.06-0.74,0.03c-0.11,0.27-0.21,0.55-0.34,0.82c-0.16,0.34-0.26,0.38-0.64,0.28c-0.11-0.03-0.22-0.05-0.33-0.07
	c-0.1-0.02-0.19-0.05-0.28-0.07c-0.26-0.43-0.03-0.87-0.05-1.3c-0.21-0.2-0.45-0.27-0.7-0.39c-0.3,0.29-0.6,0.57-0.9,0.86
	c-0.45,0-0.66-0.37-0.95-0.52c-0.07-0.22-0.04-0.37,0.05-0.51c0.06-0.1,0.11-0.2,0.16-0.3c0.27-0.54,0.27-0.54-0.21-0.99
	c-0.44-0.04-0.81,0.26-1.29,0.32c-0.27-0.28-0.51-0.6-0.57-1c0.23-0.38,0.65-0.52,0.88-0.86c0.04-0.3-0.04-0.56-0.34-0.79
	c-0.21,0-0.47,0.01-0.73,0c-0.38-0.02-0.46-0.11-0.49-0.49c-0.01-0.1-0.02-0.2-0.04-0.3c-0.08-0.34,0-0.49,0.32-0.59
	c0.22-0.06,0.42-0.17,0.65-0.19c0.08-0.01,0.16-0.06,0.25-0.1c0.02-0.06,0.04-0.13,0.06-0.2c0.12-0.41,0.07-0.52-0.29-0.72
	c-0.25-0.14-0.49-0.28-0.76-0.44c-0.02-0.42,0.12-0.77,0.33-1.08c0.47-0.17,0.88,0.1,1.32,0.04c0.14-0.15,0.25-0.33,0.33-0.51
	c-0.07-0.53-0.7-0.75-0.68-1.31c0.16-0.17,0.3-0.33,0.45-0.48c0.24-0.24,0.34-0.25,0.64-0.08c0.12,0.07,0.24,0.16,0.36,0.24
	c0.39,0.26,0.56,0.25,0.91-0.07c0.05-0.05,0.09-0.11,0.14-0.15c-0.1-0.42-0.31-0.81-0.22-1.28C15,2.06,15.3,1.79,15.71,1.83
	c0.33,0.29,0.44,0.75,0.8,1.01c0.05,0,0.11,0,0.16-0.02c0.55-0.14,0.57-0.16,0.63-0.74c0.02-0.23,0.06-0.45,0.17-0.67
	c0.36-0.07,0.72-0.04,1.09-0.03c0.31,0.38,0.15,0.91,0.4,1.34c0.21,0.02,0.4,0.13,0.64,0.12c0.33-0.26,0.45-0.71,0.79-1.01
	c0.4-0.03,0.72,0.2,1.06,0.38c0.08,0.45-0.13,0.83-0.23,1.22c0.05,0.15,0.15,0.23,0.25,0.31c0.24,0.19,0.4,0.19,0.66,0.03
	c0.16-0.09,0.31-0.2,0.47-0.29c0.14-0.08,0.27-0.16,0.47-0.1c0.23,0.23,0.53,0.44,0.65,0.81c-0.16,0.38-0.49,0.63-0.7,1.01
	c-0.03,0.25,0.15,0.44,0.29,0.65c0.44,0.08,0.86-0.18,1.32-0.04c0.24,0.28,0.31,0.65,0.37,1.05c-0.34,0.27-0.74,0.43-1.1,0.67
	C23.87,7.79,23.84,8.04,24,8.25c0.28,0.19,0.58,0.22,0.87,0.3c0.34,0.09,0.4,0.21,0.34,0.55c-0.02,0.13-0.02,0.26-0.03,0.38
	c0,0.12,0,0.23-0.12,0.33c-0.23,0.11-0.5,0.13-0.77,0.12c-0.51-0.02-0.63,0.12-0.69,0.55c-0.01,0.04-0.03,0.08-0.05,0.13
	c0.12,0.27,0.37,0.41,0.59,0.59c0.1,0.08,0.19,0.17,0.28,0.26c0.07,0.07,0.1,0.16,0.06,0.24c-0.15,0.35-0.27,0.73-0.65,0.88
	c-0.42-0.03-0.74-0.34-1.14-0.33c-0.18,0.1-0.3,0.25-0.43,0.4c-0.03,0.49,0.42,0.85,0.43,1.32C22.35,14.33,22.04,14.53,21.63,14.59z
	 M18.07,13.28c2.58,0.04,4.85-2.14,4.77-4.89c-0.08-2.58-2.12-4.6-4.67-4.66c-2.72-0.06-4.84,2.11-4.88,4.66
	C13.23,11.16,15.41,13.3,18.07,13.28z"/>
<path class="st1" d="M51.03,10.43c0-0.75,0-1.43,0-2.15c0.54,0,1.06,0,1.62,0c0-0.47,0-0.92,0-1.36c0-1.9,1.28-3.15,2.89-3.46
	c0.77-0.15,1.54-0.12,2.3,0.01c0.07,0.01,0.13,0.05,0.22,0.09c0,0.73,0,1.47,0,2.23c-0.46-0.17-0.92-0.25-1.4-0.19
	c-0.6,0.08-0.95,0.39-1.08,0.98c-0.12,0.55-0.07,1.1-0.07,1.68c0.74,0,1.46,0,2.19,0c0.07,0.37,0.03,0.72,0.04,1.08
	c0.01,0.34,0,0.69,0,1.07c-0.75,0-1.47,0-2.22,0c0,2.55,0,5.05,0,7.59c-0.96,0-1.9,0-2.86,0c0-2.51,0-5.02,0-7.56
	C52.11,10.43,51.59,10.43,51.03,10.43z"/>
<path class="st1" d="M30.72,17.72c0-0.76,0-1.5,0-2.24c0.13-0.1,0.2,0.02,0.27,0.06c0.74,0.44,1.54,0.66,2.38,0.75
	c0.47,0.05,0.94-0.02,1.39-0.18c0.39-0.13,0.57-0.41,0.57-0.77c0-0.22-0.08-0.39-0.25-0.52c-0.29-0.24-0.62-0.4-0.98-0.51
	c-0.63-0.19-1.25-0.4-1.83-0.71c-0.43-0.23-0.84-0.49-1.12-0.91c-0.38-0.56-0.47-1.17-0.42-1.83c0.03-0.51,0.18-0.98,0.49-1.39
	C31.58,9,32.06,8.7,32.58,8.46c0.54-0.24,1.11-0.37,1.69-0.41c1.1-0.08,2.19,0.03,3.26,0.38c0,0.75,0,1.49,0,2.25
	c-0.86-0.49-1.76-0.71-2.72-0.67c-0.33,0.01-0.65,0.08-0.93,0.28c-0.46,0.33-0.49,0.76-0.08,1.16c0.23,0.22,0.52,0.35,0.81,0.46
	c0.48,0.18,0.96,0.34,1.44,0.53c0.36,0.14,0.71,0.3,1.02,0.53c0.66,0.49,0.99,1.15,1.03,1.98c0.03,0.76-0.15,1.45-0.66,2.02
	c-0.42,0.47-0.95,0.78-1.54,0.97c-1.02,0.32-2.06,0.42-3.13,0.29c-0.53-0.06-1.04-0.16-1.55-0.29
	C31.04,17.89,30.87,17.83,30.72,17.72z"/>
<path class="st1" d="M60.05,10.42c-0.56,0-1.07,0-1.63,0c0-0.37,0-0.71,0-1.05c0-0.34,0-0.69,0-1.06c0.53-0.07,1.05,0.01,1.62-0.05
	c0-0.72,0-1.43,0-2.14c0.97-0.27,1.89-0.54,2.85-0.81c0,0.99,0,1.96,0,2.96c0.74,0,1.45,0,2.19,0c0,0.72,0,1.42,0,2.14
	c-0.72,0-1.43,0-2.12,0c-0.1,0.13-0.07,0.25-0.07,0.36c0,1.29,0,2.58,0,3.88c0,0.14-0.01,0.29,0.03,0.43
	c0.22,0.94,0.86,1.07,1.58,0.93c0.19-0.04,0.38-0.08,0.61-0.28c0,0.43,0,0.76,0,1.1c0,0.34,0,0.69,0,1.05
	c-0.19,0.19-0.44,0.22-0.69,0.27c-0.81,0.17-1.61,0.19-2.42-0.02c-1.05-0.27-1.61-0.98-1.86-1.98c-0.07-0.29-0.1-0.59-0.1-0.89
	c0.01-1.45,0-2.9,0-4.35C60.05,10.76,60.05,10.62,60.05,10.42z"/>
<path class="st2" d="M5.93,13.63c0.08-0.3,0.25-0.47,0.45-0.62c0.25,0.12,0.49,0.24,0.71,0.35c0.17-0.03,0.25-0.13,0.34-0.25
	c-0.01-0.11,0-0.25-0.03-0.37c-0.04-0.12-0.09-0.24-0.04-0.4c0.16-0.14,0.36-0.23,0.58-0.29c0.27,0.13,0.31,0.46,0.57,0.61
	c0.12,0.02,0.26,0.04,0.41-0.06c0.09-0.24,0-0.57,0.27-0.78c0.18,0,0.38,0,0.57,0c0.27,0.22,0.06,0.6,0.3,0.83
	c0.12,0.04,0.25,0.03,0.39,0.03c0.15-0.2,0.31-0.4,0.46-0.6c0.25,0.02,0.44,0.13,0.61,0.25c0.14,0.28-0.09,0.52-0.04,0.77
	c0.27,0.33,0.27,0.33,0.62,0.13c0.07-0.04,0.15-0.09,0.22-0.12c0.06-0.03,0.13-0.06,0.22-0.09c0.12,0.14,0.25,0.28,0.4,0.45
	c0.06,0.15-0.05,0.3-0.17,0.45c-0.23,0.3-0.23,0.3-0.03,0.64c0.26,0,0.53,0,0.8,0c0.18,0.18,0.19,0.42,0.27,0.6
	c-0.16,0.29-0.5,0.27-0.67,0.5c-0.04,0.12-0.03,0.25,0.02,0.38c0.19,0.18,0.47,0.18,0.72,0.31c0.05,0.21,0.02,0.44,0.01,0.68
	c-0.26,0.1-0.54,0.15-0.79,0.15c-0.18,0.13-0.15,0.29-0.14,0.45c0.14,0.18,0.32,0.33,0.51,0.48c0.01,0.3-0.18,0.48-0.39,0.69
	c-0.22-0.05-0.43-0.13-0.64-0.23c-0.2,0.04-0.31,0.16-0.35,0.37c0.07,0.23,0.24,0.42,0.27,0.68c-0.07,0.08-0.13,0.16-0.21,0.22
	c-0.1,0.08-0.21,0.14-0.32,0.2c-0.29-0.09-0.42-0.35-0.64-0.5c-0.41,0.12-0.49,0.21-0.41,0.58c0.06,0.3-0.14,0.51-0.41,0.52
	c-0.1,0-0.2,0-0.29,0c-0.21-0.18-0.22-0.48-0.41-0.67c-0.12-0.06-0.24-0.05-0.38-0.02c-0.21,0.17-0.18,0.47-0.35,0.66
	c-0.4,0.03-0.4,0.03-0.7-0.12c-0.06-0.22-0.01-0.45-0.03-0.66c-0.08-0.17-0.22-0.23-0.38-0.29c-0.26,0.09-0.38,0.37-0.65,0.49
	c-0.26-0.03-0.45-0.19-0.61-0.43c0.13-0.2,0.16-0.45,0.32-0.64c-0.04-0.17-0.14-0.3-0.33-0.39c-0.22,0.08-0.44,0.16-0.68,0.24
	c-0.26-0.12-0.31-0.38-0.42-0.6c0.13-0.29,0.44-0.39,0.57-0.65C6,17.42,5.95,17.31,5.85,17.2c-0.22-0.06-0.47-0.02-0.73-0.15
	c-0.16-0.17-0.11-0.42-0.11-0.67c0.2-0.21,0.5-0.15,0.74-0.29C5.8,16,5.77,15.87,5.85,15.8c-0.13-0.32-0.47-0.35-0.66-0.55
	c-0.09-0.23,0.03-0.43,0.1-0.64c0.28-0.11,0.59,0.01,0.86-0.04c0.14-0.1,0.16-0.23,0.21-0.34C6.25,14.01,6.1,13.82,5.93,13.63z
	 M12.41,16.25c0.02-1.78-1.54-3.01-3.01-2.96c-1.6,0.05-2.89,1.2-2.9,2.92c-0.01,1.77,1.25,2.95,2.92,2.98
	C11.18,19.24,12.46,17.8,12.41,16.25z"/>
<path class="st1" d="M20.2,20.35c-0.06,0.1-0.11,0.17-0.16,0.25c-0.65,0-1.31,0-1.99,0c-0.06-0.07-0.14-0.16-0.21-0.25
	c-0.52,0-1.03,0-1.55,0c-0.44,0-0.6-0.11-0.69-0.53c-0.17-0.77-0.33-1.55-0.49-2.33c-0.02-0.11-0.03-0.23-0.02-0.34
	c0.03-0.46,0.27-0.7,0.73-0.72c0.1-0.01,0.2,0,0.3,0c1.98,0,3.96-0.01,5.93-0.01c0.63,0,0.95,0.34,0.87,0.96
	c-0.11,0.83-0.29,1.65-0.49,2.46c-0.11,0.43-0.25,0.52-0.7,0.52C21.23,20.35,20.73,20.35,20.2,20.35z M20.04,20.09
	c0.09,0,0.17,0,0.26,0c0.43,0,0.86,0,1.29,0c0.44-0.01,0.46-0.04,0.59-0.45c0.05-0.15,0.05-0.31,0.09-0.46
	c0.13-0.61,0.26-1.22,0.37-1.84c0.07-0.39-0.11-0.6-0.51-0.6c-2.07,0-4.14,0-6.2,0c-0.22,0-0.4,0.03-0.52,0.31
	c0.05,0.97,0.34,1.96,0.53,2.95c0.73,0.19,1.44,0.04,2.12,0.11c0.12,0.05,0.12,0.21,0.24,0.23c0.51,0,1.01,0,1.48,0
	C19.92,20.29,19.9,20.14,20.04,20.09z"/>
<path class="st0" d="M88.73,17.45c0.14-0.03,0.17,0.08,0.18,0.17c0.01,0.12,0.02,0.23,0.19,0.32c0.82,0,1.69-0.01,2.56,0.01
	c0.14,0,0.23-0.13,0.36-0.09c0.01,0.04,0.03,0.08,0.05,0.14c-1.06,0-2.11,0-3.18,0C88.83,17.82,88.78,17.64,88.73,17.45z"/>
<path class="st0" d="M78.84,17.86c0.13,0.07,0.26,0.09,0.41,0.08c0.82,0,1.64,0,2.44,0c0.11-0.05,0.18-0.12,0.22-0.32
	c0.02,0.15,0.03,0.19,0.03,0.23c0,0.04-0.01,0.08-0.01,0.15c-1.05,0-2.1,0-3.15,0C78.77,17.94,78.79,17.9,78.84,17.86z"/>
<path class="st1" d="M21.74,18.3c-0.01,0.09-0.02,0.15-0.03,0.22c-1.8,0-3.6,0-5.39,0c-0.05-0.07-0.05-0.14-0.01-0.22
	C18.11,18.3,19.9,18.3,21.74,18.3z"/>
<path class="st1" d="M21.77,19.1c-0.14,0.08-0.28,0.06-0.43,0.01c0-0.14,0.07-0.19,0.18-0.19C21.64,18.91,21.75,18.92,21.77,19.1z"
	/>
<path class="st1" d="M18.85,19.11c-0.13,0.05-0.26,0.05-0.38,0c-0.02-0.06-0.02-0.12,0.03-0.17c0.09-0.05,0.2-0.01,0.31-0.02
	C18.87,18.97,18.89,19.03,18.85,19.11z"/>
<path class="st1" d="M19.55,19.11c-0.13,0.06-0.26,0.03-0.38,0.02c-0.04-0.08-0.03-0.13,0.02-0.19c0.1-0.05,0.21-0.02,0.31-0.02
	C19.57,18.97,19.58,19.03,19.55,19.11z"/>
<path class="st1" d="M21,18.9c0.02,0.1,0.02,0.14,0.03,0.19c-0.13,0.09-0.26,0.04-0.37,0.04c-0.09-0.05-0.05-0.11-0.05-0.16
	C20.73,18.88,20.85,18.95,21,18.9z"/>
<path class="st1" d="M16.34,18.94c0.13-0.02,0.27-0.06,0.38,0.13c-0.15,0.11-0.28,0.08-0.4,0.06C16.27,19.05,16.28,19,16.34,18.94z"
	/>
<path class="st1" d="M19.88,19.15c0.15-0.29,0.21-0.29,0.45-0.07C20.2,19.19,20.07,19.13,19.88,19.15z"/>
<path class="st1" d="M19.05,17.74c0.24-0.09,0.39-0.11,0.59,0.02C19.41,17.89,19.27,17.88,19.05,17.74z"/>
<path class="st1" d="M19.85,17.81c0.26-0.18,0.26-0.18,0.49-0.02C20.19,17.88,20.05,17.86,19.85,17.81z"/>
<path class="st1" d="M21.04,17.82c-0.15,0.04-0.3,0.07-0.45-0.02C20.8,17.61,20.88,17.62,21.04,17.82z"/>
<path class="st1" d="M16.3,17.8c0.1-0.21,0.24-0.14,0.42-0.07C16.59,17.92,16.45,17.84,16.3,17.8z"/>
<path class="st1" d="M17.43,17.83c-0.18,0.04-0.3,0.05-0.41,0.01c-0.05-0.07-0.03-0.15,0.02-0.15
	C17.17,17.68,17.34,17.58,17.43,17.83z"/>
<path class="st1" d="M18.4,17.81c0.17-0.2,0.31-0.17,0.51-0.07C18.74,17.91,18.6,17.86,18.4,17.81z"/>
<path class="st1" d="M17.44,19.13c-0.19,0.01-0.33,0.05-0.45-0.04C17.14,18.88,17.26,18.88,17.44,19.13z"/>
<path class="st1" d="M21.83,17.74c-0.21,0.14-0.34,0.13-0.49,0.06C21.45,17.6,21.59,17.67,21.83,17.74z"/>
<path class="st1" d="M18.11,19.14c-0.1,0-0.17,0-0.23,0c-0.04,0-0.08-0.02-0.11-0.03c-0.03-0.12,0.01-0.16,0.12-0.16
	C17.98,18.95,18.12,18.91,18.11,19.14z"/>
<path class="st1" d="M18.14,17.8c-0.16,0.06-0.28,0.07-0.39,0.01C17.86,17.63,17.91,17.62,18.14,17.8z"/>
</svg>
